/* XPM */
static const char *minicrypt_ico[] = {
/* columns rows colors chars-per-pixel */
"32 32 5 1 ",
"  c black",
". c #808080",
"X c #C0C0C0",
"o c white",
"O c None",
/* pixels */
"OOOOOOOOOOOOOOOOOOOOOOOOOOOOOOOO",
"OOOOOOOOOOOOOOOOOOOOOOOOOOOOOOOO",
"OOOOOOOOOOOOO     OOOOOOOOOOOOOO",
"OOOOOOOOOOO  ooooo  OOOOOOOOOOOO",
"OOOOOOOOOO ooo   ooo OOOOOOOOOOO",
"OOOOOOOOO oo  OOO  oo OOOOOOOOOO",
"OOOOOOOO oo OOOOOOO oo OOOOOOOOO",
"OOOOOOOO o OOOOOOOOO o OOOOOOOOO",
"OOOOOOOO o OOOOOOOOO o OOOOOOOOO",
"OOOOOOOO o OOOOOOOOO o OOOOOOOOO",
"OOOOOOOO o OOOOOOOOO o OOOOOOOOO",
"OOOOOOOO X O       O X OOOOOOOOO",
"OOOOOOOO X  ooooooo  X OOOOOOOOO",
"OOOOOOOO  oooo   oooo  OOOOOOOOO",
"OOOOOOOO oooooo oooooo OOOOOOOOO",
"OOOOOOO ooooo     ooooo OOOOOOOO",
"OOOOOO oooo    o    oooo OOOOOOO",
"OOOOOO ooo     o     ooo OOOOOOO",
"OOOOO ooo  o       o  ooo OOOOOO",
"OOOOO ooo   o     o   ooo OOOOOO",
"OOOOO oo      ooo      oo OOOOOO",
"OOOOO oo     ooooX     oX OOOOOO",
"OOOOO oo oo  oooXX  XX oX OOOOOO",
"OOOOO oo     ooXX.     oX OOOOOO",
"OOOOO oo      XX.      o. OOOOOO",
"OOOOOO oo   o     X   oX OOOOOOO",
"OOOOOO oo  o       X  X. OOOOOOO",
"OOOOOOO oo     X     X. OOOOOOOO",
"OOOOOOOO oo    X    X. OOOOOOOOO",
"OOOOOOOOO ooo     oX. OOOOOOOOOO",
"OOOOOOOOOO  oooXXX.  OOOOOOOOOOO",
"OOOOOOOOOOOO       OOOOOOOOOOOOO"
};
